<svg xmlns="http://www.w3.org/2000/svg" width="47" height="47" viewBox="0 0 47 47"><g transform="translate(-1296 -11)"><g transform="translate(1296 11)" fill="#fff"><path d="M 30.49960136413574 46.49980163574219 L 16.50020027160645 46.49980163574219 L 16.50020027160645 30.99960136413574 L 16.50020027160645 30.49960136413574 L 16.00020027160645 30.49960136413574 L 0.5000008344650269 30.49960136413574 L 0.5000008344650269 16.50020027160645 L 16.00020027160645 16.50020027160645 L 16.50020027160645 16.50020027160645 L 16.50020027160645 16.00020027160645 L 16.50020027160645 0.5000008344650269 L 30.49960136413574 0.5000008344650269 L 30.49960136413574 16.00020027160645 L 30.49960136413574 16.50020027160645 L 30.99960136413574 16.50020027160645 L 46.49980163574219 16.50020027160645 L 46.49980163574219 30.49960136413574 L 30.99960136413574 30.49960136413574 L 30.49960136413574 30.49960136413574 L 30.49960136413574 30.99960136413574 L 30.49960136413574 46.49980163574219 Z" stroke="none"/><path d="M 29.99960136413574 45.99980163574219 L 29.99960136413574 30.99960136413574 L 29.99960136413574 29.99960136413574 L 30.99960136413574 29.99960136413574 L 45.99980163574219 29.99960136413574 L 45.99980163574219 17.00020027160645 L 30.99960136413574 17.00020027160645 L 29.99960136413574 17.00020027160645 L 29.99960136413574 16.00020027160645 L 29.99960136413574 1.000000834465027 L 17.00020027160645 1.000000834465027 L 17.00020027160645 16.00020027160645 L 17.00020027160645 17.00020027160645 L 16.00020027160645 17.00020027160645 L 1.000000834465027 17.00020027160645 L 1.000000834465027 29.99960136413574 L 16.00020027160645 29.99960136413574 L 17.00020027160645 29.99960136413574 L 17.00020027160645 30.99960136413574 L 17.00020027160645 45.99980163574219 L 29.99960136413574 45.99980163574219 M 30.99960136413574 46.99980163574219 L 16.00020027160645 46.99980163574219 L 16.00020027160645 30.99960136413574 L 8.178710686479462e-07 30.99960136413574 L 8.178710686479462e-07 16.00020027160645 L 16.00020027160645 16.00020027160645 L 16.00020027160645 8.178710686479462e-07 L 30.99960136413574 8.178710686479462e-07 L 30.99960136413574 16.00020027160645 L 46.99980163574219 16.00020027160645 L 46.99980163574219 30.99960136413574 L 30.99960136413574 30.99960136413574 L 30.99960136413574 46.99980163574219 Z" stroke="none" fill="#707070"/></g><g transform="translate(1296 11)" fill="#fff"><path d="M 30.49960136413574 46.49980163574219 L 16.50020027160645 46.49980163574219 L 16.50020027160645 30.99960136413574 L 16.50020027160645 30.49960136413574 L 16.00020027160645 30.49960136413574 L 0.5000008344650269 30.49960136413574 L 0.5000008344650269 16.50020027160645 L 16.00020027160645 16.50020027160645 L 16.50020027160645 16.50020027160645 L 16.50020027160645 16.00020027160645 L 16.50020027160645 0.5000008344650269 L 30.49960136413574 0.5000008344650269 L 30.49960136413574 16.00020027160645 L 30.49960136413574 16.50020027160645 L 30.99960136413574 16.50020027160645 L 46.49980163574219 16.50020027160645 L 46.49980163574219 30.49960136413574 L 30.99960136413574 30.49960136413574 L 30.49960136413574 30.49960136413574 L 30.49960136413574 30.99960136413574 L 30.49960136413574 46.49980163574219 Z" stroke="none"/><path d="M 29.99960136413574 45.99980163574219 L 29.99960136413574 30.99960136413574 L 29.99960136413574 29.99960136413574 L 30.99960136413574 29.99960136413574 L 45.99980163574219 29.99960136413574 L 45.99980163574219 17.00020027160645 L 30.99960136413574 17.00020027160645 L 29.99960136413574 17.00020027160645 L 29.99960136413574 16.00020027160645 L 29.99960136413574 1.000000834465027 L 17.00020027160645 1.000000834465027 L 17.00020027160645 16.00020027160645 L 17.00020027160645 17.00020027160645 L 16.00020027160645 17.00020027160645 L 1.000000834465027 17.00020027160645 L 1.000000834465027 29.99960136413574 L 16.00020027160645 29.99960136413574 L 17.00020027160645 29.99960136413574 L 17.00020027160645 30.99960136413574 L 17.00020027160645 45.99980163574219 L 29.99960136413574 45.99980163574219 M 30.99960136413574 46.99980163574219 L 16.00020027160645 46.99980163574219 L 16.00020027160645 30.99960136413574 L 8.178710686479462e-07 30.99960136413574 L 8.178710686479462e-07 16.00020027160645 L 16.00020027160645 16.00020027160645 L 16.00020027160645 8.178710686479462e-07 L 30.99960136413574 8.178710686479462e-07 L 30.99960136413574 16.00020027160645 L 46.99980163574219 16.00020027160645 L 46.99980163574219 30.99960136413574 L 30.99960136413574 30.99960136413574 L 30.99960136413574 46.99980163574219 Z" stroke="none" fill="#707070"/></g></g></svg>