<svg xmlns="http://www.w3.org/2000/svg" xmlns:xlink="http://www.w3.org/1999/xlink" width="47" height="47" viewBox="0 0 47 47"><defs><radialGradient id="a" cx="0.5" cy="0.5" r="1.282" gradientTransform="matrix(0, 1, -3.188, 0, 2.094, 0)" gradientUnits="objectBoundingBox"><stop offset="0" stop-color="#fff"/><stop offset="1" stop-color="#878787"/><stop offset="1" stop-color="#6f6f6f"/><stop offset="1" stop-color="#6a6a6a"/></radialGradient></defs><g fill="url(#a)"><path d="M 29.99970054626465 46.49980163574219 L 17.00010108947754 46.49980163574219 C 16.72445106506348 46.49980163574219 16.50020027160645 46.27555084228516 16.50020027160645 45.99990081787109 L 16.50020027160645 31.00050163269043 L 16.50020027160645 30.50050163269043 L 16.00020027160645 30.50050163269043 L 0.9999008178710938 30.50050163269043 C 0.7242507934570313 30.50050163269043 0.5000008344650269 30.27584075927734 0.5000008344650269 29.99970054626465 L 0.5000008344650269 17.00010108947754 C 0.5000008344650269 16.72445106506348 0.7242507934570313 16.50020027160645 0.9999008178710938 16.50020027160645 L 16.00020027160645 16.50020027160645 L 16.50020027160645 16.50020027160645 L 16.50020027160645 16.00020027160645 L 16.50020027160645 0.9999008178710938 C 16.50020027160645 0.7242507934570313 16.72445106506348 0.5000008344650269 17.00010108947754 0.5000008344650269 L 29.99970054626465 0.5000008344650269 C 30.27584075927734 0.5000008344650269 30.50050163269043 0.7242507934570313 30.50050163269043 0.9999008178710938 L 30.50050163269043 16.00020027160645 L 30.50050163269043 16.50020027160645 L 31.00050163269043 16.50020027160645 L 45.99990081787109 16.50020027160645 C 46.27555084228516 16.50020027160645 46.49980163574219 16.72445106506348 46.49980163574219 17.00010108947754 L 46.49980163574219 29.99970054626465 C 46.49980163574219 30.27584075927734 46.27555084228516 30.50050163269043 45.99990081787109 30.50050163269043 L 31.00050163269043 30.50050163269043 L 30.50050163269043 30.50050163269043 L 30.50050163269043 31.00050163269043 L 30.50050163269043 45.99990081787109 C 30.50050163269043 46.27555084228516 30.27584075927734 46.49980163574219 29.99970054626465 46.49980163574219 Z" stroke="none"/><path d="M 30.00050163269043 45.99990081787109 L 30.00050163269043 31.00050163269043 L 30.00050163269043 30.00050163269043 L 31.00050163269043 30.00050163269043 L 45.99980163574219 29.99970054626465 L 45.99990081787109 17.00020027160645 L 31.00050163269043 17.00020027160645 L 30.00050163269043 17.00020027160645 L 30.00050163269043 16.00020027160645 L 29.99970054626465 1.000000834465027 L 17.00020027160645 0.9999008178710938 L 17.00020027160645 16.00020027160645 L 17.00020027160645 17.00020027160645 L 16.00020027160645 17.00020027160645 L 1.000000834465027 17.00010108947754 L 0.9999008178710938 30.00050163269043 L 16.00020027160645 30.00050163269043 L 17.00020027160645 30.00050163269043 L 17.00020027160645 31.00050163269043 L 17.00010108947754 45.99980163574219 L 29.99970054626465 45.99980163574219 L 30.00050163269043 45.99990081787109 M 29.99970054626465 46.99980163574219 L 17.00010108947754 46.99980163574219 C 16.44750022888184 46.99980163574219 16.00020027160645 46.5525016784668 16.00020027160645 45.99990081787109 L 16.00020027160645 31.00050163269043 L 0.9999008178710938 31.00050163269043 C 0.4473008215427399 31.00050163269043 8.178710686479462e-07 30.55230140686035 8.178710686479462e-07 29.99970054626465 L 8.178710686479462e-07 17.00010108947754 C 8.178710686479462e-07 16.44750022888184 0.4473008215427399 16.00020027160645 0.9999008178710938 16.00020027160645 L 16.00020027160645 16.00020027160645 L 16.00020027160645 0.9999008178710938 C 16.00020027160645 0.4473008215427399 16.44750022888184 8.178710686479462e-07 17.00010108947754 8.178710686479462e-07 L 29.99970054626465 8.178710686479462e-07 C 30.55230140686035 8.178710686479462e-07 31.00050163269043 0.4473008215427399 31.00050163269043 0.9999008178710938 L 31.00050163269043 16.00020027160645 L 45.99990081787109 16.00020027160645 C 46.5525016784668 16.00020027160645 46.99980163574219 16.44750022888184 46.99980163574219 17.00010108947754 L 46.99980163574219 29.99970054626465 C 46.99980163574219 30.55230140686035 46.5525016784668 31.00050163269043 45.99990081787109 31.00050163269043 L 31.00050163269043 31.00050163269043 L 31.00050163269043 45.99990081787109 C 31.00050163269043 46.5525016784668 30.55230140686035 46.99980163574219 29.99970054626465 46.99980163574219 Z" stroke="none" fill="#707070"/></g></svg>