<svg xmlns="http://www.w3.org/2000/svg" width="24.142" height="31.457" viewBox="0 0 24.142 31.457"><g transform="translate(-1823 -695.979)"><g transform="translate(1835.121 695.979) rotate(45)" fill="#707070"><path d="M 10.71254062652588 16.49980163574219 L 6.287261009216309 16.49980163574219 L 6.287261009216309 11.21254062652588 L 6.287261009216309 10.71254062652588 L 5.787261009216309 10.71254062652588 L 0.5000008344650269 10.71254062652588 L 0.5000008344650269 6.287261009216309 L 5.787261009216309 6.287261009216309 L 6.287261009216309 6.287261009216309 L 6.287261009216309 5.787261009216309 L 6.287261009216309 0.5000008344650269 L 10.71254062652588 0.5000008344650269 L 10.71254062652588 5.787261009216309 L 10.71254062652588 6.287261009216309 L 11.21254062652588 6.287261009216309 L 16.49980163574219 6.287261009216309 L 16.49980163574219 10.71254062652588 L 11.21254062652588 10.71254062652588 L 10.71254062652588 10.71254062652588 L 10.71254062652588 11.21254062652588 L 10.71254062652588 16.49980163574219 Z" stroke="none"/><path d="M 10.21254062652588 15.99980068206787 L 10.21254062652588 11.21254062652588 L 10.21254062652588 10.21254062652588 L 11.21254062652588 10.21254062652588 L 15.99980068206787 10.21254062652588 L 15.99980068206787 6.787261009216309 L 11.21254062652588 6.787261009216309 L 10.21254062652588 6.787261009216309 L 10.21254062652588 5.787261009216309 L 10.21254062652588 1.000000834465027 L 6.787261009216309 1.000000834465027 L 6.787261009216309 5.787261009216309 L 6.787261009216309 6.787261009216309 L 5.787261009216309 6.787261009216309 L 1.000000834465027 6.787261009216309 L 1.000000834465027 10.21254062652588 L 5.787261009216309 10.21254062652588 L 6.787261009216309 10.21254062652588 L 6.787261009216309 11.21254062652588 L 6.787261009216309 15.99980068206787 L 10.21254062652588 15.99980068206787 M 11.21254062652588 16.99980163574219 L 5.787261009216309 16.99980163574219 L 5.787261009216309 11.21254062652588 L 8.178710686479462e-07 11.21254062652588 L 8.178710686479462e-07 5.787261009216309 L 5.787261009216309 5.787261009216309 L 5.787261009216309 8.178710686479462e-07 L 11.21254062652588 8.178710686479462e-07 L 11.21254062652588 5.787261009216309 L 16.99980163574219 5.787261009216309 L 16.99980163574219 11.21254062652588 L 11.21254062652588 11.21254062652588 L 11.21254062652588 16.99980163574219 Z" stroke="none" fill="#707070"/></g><g transform="translate(1847 727.437) rotate(180)" fill="#707070"><path d="M 22.61897850036621 9.5 L 1.381021976470947 9.5 L 12 0.6508516669273376 L 22.61897850036621 9.5 Z" stroke="none"/><path d="M 12 1.301703453063965 L 2.762044906616211 9 L 21.23795700073242 9 L 12 1.301703453063965 M 12 0 L 24 10 L 0 10 L 12 0 Z" stroke="none" fill="#707070"/></g></g></svg>