<svg xmlns="http://www.w3.org/2000/svg" width="249" height="126" viewBox="0 0 249 126"><g transform="translate(-137 -998)"><text transform="translate(219 1107)" fill="#707070" font-size="100" font-family="ScarletWood-Bold, Scarlet Wood" font-weight="700" letter-spacing="0.038em"><tspan x="0" y="0">___</tspan></text><text transform="translate(152 1107)" fill="#707070" font-size="100" font-family="ScarletWood-Bold, Scarlet Wood" font-weight="700"><tspan x="0" y="0">D</tspan></text><text transform="translate(232 1055)" fill="#707070" font-size="50" font-family="ScarletWood-Bold, Scarlet Wood" font-weight="700"><tspan x="0" y="0">a</tspan></text><text transform="translate(260 1091)" fill="#707070" font-size="50" font-family="ScarletWood-Bold, Scarlet Wood" font-weight="700"><tspan x="0" y="0">s</tspan></text><text transform="translate(287 1055)" fill="#707070" font-size="50" font-family="ScarletWood-Bold, Scarlet Wood" font-weight="700"><tspan x="0" y="0">h</tspan></text><text transform="translate(326 1075)" fill="#707070" font-size="75" font-family="ScarletWood-Bold, Scarlet Wood" font-weight="700"><tspan x="0" y="0">y</tspan></text><g transform="translate(249 1052)" fill="none" stroke="#d4d4d4" stroke-width="1"><rect width="50" height="50" stroke="none"/><rect x="0.5" y="0.5" width="49" height="49" fill="none"/></g><g transform="translate(137 1022)" fill="none" stroke="#d4d4d4" stroke-width="1"><rect width="100" height="100" stroke="none"/><rect x="0.5" y="0.5" width="99" height="99" fill="none"/></g><g transform="translate(311 1022)" fill="none" stroke="#707070" stroke-width="1"><rect width="75" height="75" stroke="none"/><rect x="0.5" y="0.5" width="74" height="74" fill="none"/></g><g transform="translate(249 1105)" fill="none" stroke="#707070" stroke-width="1"><rect width="137" height="17" stroke="none"/><rect x="0.5" y="0.5" width="136" height="16" fill="none"/></g></g></svg>