<svg xmlns="http://www.w3.org/2000/svg" width="34.52" height="49.816" viewBox="0 0 34.52 49.816"><g transform="translate(-1303.052 -9.184)"><g transform="translate(1305 19)" fill="#fff"><path d="M 29.52437400817871 39.5 L 0.4762459695339203 39.5 L -1.422693252563477 0.5 L 31.47473335266113 0.5 L 29.52437400817871 39.5 Z" stroke="none"/><path d="M -0.8977546691894531 1 L 0.9524936676025391 39 L 29.04875946044922 39 L 30.94911003112793 1 L -0.8977546691894531 1 M -1.9476318359375 0 L 32.0003662109375 0 L 29.99999809265137 40 L -1.9073486328125e-06 40 L -1.9476318359375 0 Z" stroke="none" fill="#707070"/></g><line y2="30" transform="translate(1312.5 25.5)" fill="none" stroke="#707070" stroke-width="1"/><line y2="30" transform="translate(1317.5 25.5)" fill="none" stroke="#707070" stroke-width="1"/><line y2="30" transform="translate(1322.5 25.5)" fill="none" stroke="#707070" stroke-width="1"/><line y2="30" transform="translate(1327.5 25.5)" fill="none" stroke="#707070" stroke-width="1"/><line y1="5" x2="34" transform="translate(1303.5 11.5)" fill="none" stroke="#707070" stroke-width="1"/><g transform="translate(1313.78 10.855) rotate(-8)" fill="#fff" stroke="#707070" stroke-width="1"><rect width="12" height="4" stroke="none"/><rect x="0.5" y="0.5" width="11" height="3" fill="none"/></g></g></svg>